<svg aria-hidden="true" style="position: absolute; width: 0; height: 0; overflow: hidden;" version="1.1" xmlns="http://www.w3.org/2000/svg" xmlns:xlink="http://www.w3.org/1999/xlink">
<defs>
<symbol id="icon-lucide_radar" viewBox="0 0 32 32">
<path stroke-linejoin="round" stroke-linecap="round" stroke-miterlimit="4" stroke-width="2.6667" d="M25.427 6.573c-2.076-2.078-4.781-3.413-7.693-3.796s-5.87 0.206-8.413 1.676M5.333 8h0.013M3.053 12.827c-0.5 2.036-0.513 4.161-0.037 6.203s1.426 3.943 2.774 5.549 3.056 2.871 4.984 3.693c1.929 0.822 4.024 1.178 6.116 1.038s4.121-0.771 5.924-1.842 3.327-2.552 4.449-4.323c1.123-1.771 1.812-3.781 2.012-5.868s-0.095-4.192-0.861-6.143"></path>
<path stroke-linejoin="round" stroke-linecap="round" stroke-miterlimit="4" stroke-width="2.6667" d="M21.653 10.347c-0.767-0.772-1.684-1.379-2.694-1.784s-2.092-0.6-3.18-0.573c-1.088 0.027-2.159 0.276-3.147 0.732s-1.873 1.108-2.601 1.917c-0.728 0.809-1.282 1.759-1.63 2.79s-0.482 2.123-0.394 3.207c0.088 1.085 0.397 2.14 0.907 3.101s1.211 1.809 2.060 2.49M16 24h0.013M23.987 15.547c0.073 1.269-0.158 2.536-0.673 3.698s-1.299 2.184-2.287 2.982"></path>
<path stroke-linejoin="round" stroke-linecap="round" stroke-miterlimit="4" stroke-width="2.6667" d="M16 18.667c1.473 0 2.667-1.194 2.667-2.667s-1.194-2.667-2.667-2.667c-1.473 0-2.667 1.194-2.667 2.667s1.194 2.667 2.667 2.667z"></path>
<path stroke-linejoin="round" stroke-linecap="round" stroke-miterlimit="4" stroke-width="2.6667" d="M17.88 14.12l7.547-7.547"></path>
</symbol>
<symbol id="icon-wind" viewBox="0 0 32 32">
<path d="M24.548 20c1.496 0 2.725 0.553 3.571 1.472 0.827 0.897 1.215 2.064 1.215 3.195s-0.388 2.297-1.215 3.195c-0.845 0.92-2.075 1.472-3.571 1.472-0.354 0-0.693-0.141-0.943-0.391s-0.391-0.589-0.391-0.943c0-0.354 0.141-0.693 0.391-0.943s0.589-0.391 0.943-0.391c0.805 0 1.303-0.28 1.608-0.612 0.324-0.352 0.511-0.852 0.511-1.388s-0.187-1.036-0.511-1.388c-0.305-0.332-0.803-0.612-1.608-0.612h-20.548c-0.354 0-0.693-0.141-0.943-0.391s-0.391-0.589-0.391-0.943c0-0.354 0.14-0.693 0.391-0.943s0.589-0.391 0.943-0.391h20.548zM24.712 8.007c1.377 0.064 2.513 0.6 3.312 1.461 0.833 0.896 1.227 2.065 1.227 3.199s-0.393 2.303-1.227 3.2c-0.853 0.916-2.087 1.467-3.591 1.467h-20.433c-0.354 0-0.693-0.141-0.943-0.391s-0.391-0.589-0.391-0.943c0-0.354 0.14-0.693 0.391-0.943s0.589-0.391 0.943-0.391h20.433c0.82 0 1.328-0.283 1.637-0.616 0.328-0.353 0.515-0.851 0.515-1.384s-0.187-1.031-0.515-1.384c-0.271-0.292-0.693-0.544-1.344-0.603l-0.293-0.013-0.136-0.007c-0.341-0.034-0.655-0.198-0.878-0.458s-0.338-0.595-0.32-0.937c0.017-0.342 0.166-0.664 0.414-0.899s0.578-0.367 0.92-0.366l0.279 0.007zM14.775 2.673c1.381 0.064 2.521 0.6 3.324 1.459 0.839 0.896 1.236 2.065 1.236 3.201s-0.397 2.305-1.236 3.201c-0.856 0.916-2.095 1.465-3.603 1.465h-10.496c-0.354 0-0.693-0.14-0.943-0.391s-0.391-0.589-0.391-0.943c0-0.354 0.14-0.693 0.391-0.943s0.589-0.391 0.943-0.391h10.496c0.829 0 1.343-0.284 1.655-0.619 0.331-0.353 0.517-0.851 0.517-1.381s-0.187-1.028-0.517-1.381c-0.273-0.293-0.7-0.547-1.36-0.605l-0.431-0.020c-0.341-0.034-0.655-0.198-0.878-0.458s-0.338-0.595-0.32-0.937 0.166-0.664 0.414-0.9c0.248-0.236 0.578-0.366 0.92-0.366l0.279 0.007z"></path>
</symbol>
<symbol id="icon-flash" viewBox="0 0 32 32">
<path fill="none" stroke="#fff" style="stroke: var(--color1, #fff)" stroke-linejoin="round" stroke-linecap="round" stroke-miterlimit="4" stroke-width="2" d="M19.704 2.063l-13.704 16.938h8l-1.969 10.827c-0.004 0.021-0.003 0.043 0.003 0.064s0.016 0.040 0.030 0.057c0.014 0.017 0.031 0.030 0.051 0.039s0.041 0.014 0.062 0.014c0.023 0 0.046-0.005 0.066-0.016s0.038-0.025 0.052-0.044l13.706-16.941h-8l1.979-10.828c0.003-0.022 0.001-0.043-0.006-0.064s-0.017-0.040-0.032-0.056c-0.014-0.016-0.032-0.029-0.052-0.038s-0.041-0.013-0.063-0.013c-0.024 0-0.047 0.006-0.068 0.017s-0.040 0.027-0.053 0.046z"></path>
</symbol>
<symbol id="icon-delete" viewBox="0 0 32 32">
<path fill="#fff" style="fill: var(--color1, #fff)" d="M9.333 28c-0.733 0-1.361-0.261-1.883-0.783s-0.783-1.15-0.784-1.884v-17.333c-0.378 0-0.694-0.128-0.949-0.384s-0.383-0.572-0.384-0.949c-0.001-0.377 0.127-0.693 0.384-0.949s0.573-0.384 0.949-0.384h5.333c0-0.378 0.128-0.694 0.384-0.949s0.572-0.383 0.949-0.384h5.333c0.378 0 0.695 0.128 0.951 0.384s0.384 0.572 0.383 0.949h5.333c0.378 0 0.695 0.128 0.951 0.384s0.384 0.572 0.383 0.949c-0.001 0.377-0.129 0.694-0.384 0.951s-0.572 0.384-0.949 0.383v17.333c0 0.733-0.261 1.361-0.783 1.884s-1.15 0.784-1.884 0.783h-13.333zM22.667 8h-13.333v17.333h13.333v-17.333zM13.333 22.667c0.378 0 0.695-0.128 0.951-0.384s0.384-0.572 0.383-0.949v-9.333c0-0.378-0.128-0.694-0.384-0.949s-0.572-0.383-0.949-0.384c-0.377-0.001-0.693 0.127-0.949 0.384s-0.384 0.573-0.384 0.949v9.333c0 0.378 0.128 0.695 0.384 0.951s0.572 0.384 0.949 0.383zM18.667 22.667c0.378 0 0.695-0.128 0.951-0.384s0.384-0.572 0.383-0.949v-9.333c0-0.378-0.128-0.694-0.384-0.949s-0.572-0.383-0.949-0.384c-0.377-0.001-0.693 0.127-0.949 0.384s-0.384 0.573-0.384 0.949v9.333c0 0.378 0.128 0.695 0.384 0.951s0.572 0.384 0.949 0.383z"></path>
</symbol>
<symbol id="icon-edit" viewBox="0 0 32 32">
<path fill="#fff" style="fill: var(--color1, #fff)" d="M28.4 3.6c-0.417-0.418-0.912-0.749-1.458-0.975s-1.13-0.342-1.72-0.342c-0.59 0-1.175 0.116-1.72 0.342s-1.041 0.557-1.458 0.975l-16.898 16.899c-0.503 0.503-0.869 1.127-1.061 1.813l-1.768 6.314c-0.041 0.146-0.042 0.301-0.003 0.448s0.116 0.281 0.223 0.388c0.107 0.108 0.242 0.184 0.389 0.223s0.302 0.037 0.448-0.003l6.313-1.768c0.686-0.191 1.311-0.556 1.814-1.061l16.899-16.899c0.418-0.417 0.749-0.912 0.974-1.458s0.342-1.13 0.342-1.72c0-0.59-0.116-1.174-0.342-1.72s-0.557-1.040-0.974-1.458zM23.257 4.811c0.521-0.521 1.228-0.814 1.966-0.814s1.444 0.293 1.965 0.814 0.814 1.228 0.814 1.966c-0 0.737-0.293 1.444-0.814 1.965l-1.76 1.759-3.93-3.931 1.76-1.759zM20.286 7.783l3.931 3.931-13.929 13.928c-0.294 0.296-0.661 0.51-1.063 0.622l-4.847 1.357 1.357-4.846c0.113-0.402 0.327-0.768 0.622-1.063l13.929-13.929z"></path>
</symbol>
<symbol id="icon-radar" viewBox="0 0 32 32">
<path fill="#fff" style="fill: var(--color1, #fff)" d="M16 32c-8.837 0-16-7.163-16-16s7.163-16 16-16c8.837 0 16 7.163 16 16 0 4.243-1.686 8.313-4.686 11.314s-7.070 4.686-11.314 4.686zM16 2c-7.732 0-14 6.268-14 14s6.268 14 14 14c7.732 0 14-6.268 14-14 0-3.713-1.475-7.274-4.101-9.899s-6.186-4.101-9.899-4.101z"></path>
<path fill="#fff" style="fill: var(--color1, #fff)" d="M23 15h-6v-6h-2v6h-6v2h6v6h2v-6h6v-2z"></path>
</symbol>
<symbol id="icon-list" viewBox="0 0 32 32">
<path fill="none" stroke="#fff" style="stroke: var(--color1, #fff)" stroke-linejoin="round" stroke-linecap="round" stroke-miterlimit="4" stroke-width="3" d="M10 9h18M10 16h18M10 23h18"></path>
<path fill="#fff" style="fill: var(--color1, #fff); stroke: var(--color1, #fff)" stroke="#fff" stroke-linejoin="round" stroke-linecap="round" stroke-miterlimit="4" stroke-width="2" d="M5 10c0.552 0 1-0.448 1-1s-0.448-1-1-1c-0.552 0-1 0.448-1 1s0.448 1 1 1z"></path>
<path fill="#fff" style="fill: var(--color1, #fff); stroke: var(--color1, #fff)" stroke="#fff" stroke-linejoin="round" stroke-linecap="round" stroke-miterlimit="4" stroke-width="2" d="M5 17c0.552 0 1-0.448 1-1s-0.448-1-1-1c-0.552 0-1 0.448-1 1s0.448 1 1 1z"></path>
<path fill="none" stroke="#fff" style="stroke: var(--color1, #fff)" stroke-linejoin="round" stroke-linecap="round" stroke-miterlimit="4" stroke-width="2" d="M5 24c0.552 0 1-0.448 1-1s-0.448-1-1-1c-0.552 0-1 0.448-1 1s0.448 1 1 1z"></path>
</symbol>
<symbol id="icon-secure" viewBox="0 0 32 32">
<path fill="none" stroke="#fff" style="stroke: var(--color1, #fff)" stroke-linejoin="miter" stroke-linecap="round" stroke-miterlimit="4" stroke-width="1.6842" d="M15.005 1.194c0.635-0.272 1.355-0.272 1.99 0l9.977 4.276c1.023 0.438 1.639 1.496 1.516 2.602l-1.097 9.872c-0.312 2.81-1.7 5.392-3.872 7.202l-5.903 4.918c-0.937 0.78-2.297 0.78-3.234 0l-5.903-4.918c-2.172-1.81-3.559-4.392-3.872-7.202l-1.097-9.872c-0.123-1.106 0.493-2.164 1.516-2.602l9.977-4.276z"></path>
</symbol>
</defs>
</svg>
